REM DIRINDEX 1\2,1\3,1\4,1\5\6,1\5\7,1\8
REM DIRNAME cjc115,folder01,folder02,folder03,folder04,folder05,folder06,folder07
TITLE ""
FILE "009 【009】Unit1 (0097 effective_0108 surrounding).mp3" MP3
  TRACK 01 AUDIO
    TITLE "0:"
    INDEX 01 00:00:00
  TRACK 02 AUDIO
    TITLE "2:cjc115_0290"
    INDEX 01 00:00:07
  TRACK 03 AUDIO
    TITLE "0:"
    INDEX 01 00:01:26
  TRACK 04 AUDIO
    TITLE "3:cjc115_0291"
    INDEX 01 00:01:28
  TRACK 05 AUDIO
    TITLE "0:"
    INDEX 01 00:02:61
  TRACK 06 AUDIO
    TITLE "4:cjc115_0292"
    INDEX 01 00:02:67
  TRACK 07 AUDIO
    TITLE "0:"
    INDEX 01 00:06:57
  TRACK 08 AUDIO
    TITLE "2:cjc115_0293"
    INDEX 01 00:07:60
  TRACK 09 AUDIO
    TITLE "0:"
    INDEX 01 00:09:12
  TRACK 10 AUDIO
    TITLE "3:cjc115_0294"
    INDEX 01 00:09:20
  TRACK 11 AUDIO
    TITLE "0:"
    INDEX 01 00:12:03
  TRACK 12 AUDIO
    TITLE "4:cjc115_0295"
    INDEX 01 00:12:11
  TRACK 13 AUDIO
    TITLE "0:"
    INDEX 01 00:16:30
  TRACK 14 AUDIO
    TITLE "2:cjc115_0296"
    INDEX 01 00:17:39
  TRACK 15 AUDIO
    TITLE "0:"
    INDEX 01 00:18:54
  TRACK 16 AUDIO
    TITLE "3:cjc115_0297"
    INDEX 01 00:18:62
  TRACK 17 AUDIO
    TITLE "0:"
    INDEX 01 00:21:13
  TRACK 18 AUDIO
    TITLE "4:cjc115_0298"
    INDEX 01 00:21:17
  TRACK 19 AUDIO
    TITLE "0:"
    INDEX 01 00:24:61
  TRACK 20 AUDIO
    TITLE "2:cjc115_0299"
    INDEX 01 00:25:66
  TRACK 21 AUDIO
    TITLE "0:"
    INDEX 01 00:27:22
  TRACK 22 AUDIO
    TITLE "3:cjc115_0300"
    INDEX 01 00:27:32
  TRACK 23 AUDIO
    TITLE "0:"
    INDEX 01 00:28:70
  TRACK 24 AUDIO
    TITLE "4:cjc115_0301"
    INDEX 01 00:29:03
  TRACK 25 AUDIO
    TITLE "0:"
    INDEX 01 00:32:09
  TRACK 26 AUDIO
    TITLE "2:cjc115_0302"
    INDEX 01 00:33:15
  TRACK 27 AUDIO
    TITLE "0:"
    INDEX 01 00:34:42
  TRACK 28 AUDIO
    TITLE "3:cjc115_0303"
    INDEX 01 00:34:45
  TRACK 29 AUDIO
    TITLE "0:"
    INDEX 01 00:36:42
  TRACK 30 AUDIO
    TITLE "4:cjc115_0304"
    INDEX 01 00:36:44
  TRACK 31 AUDIO
    TITLE "0:"
    INDEX 01 00:41:36
  TRACK 32 AUDIO
    TITLE "2:cjc115_0305"
    INDEX 01 00:42:43
  TRACK 33 AUDIO
    TITLE "0:"
    INDEX 01 00:43:70
  TRACK 34 AUDIO
    TITLE "3:cjc115_0306"
    INDEX 01 00:44:03
  TRACK 35 AUDIO
    TITLE "0:"
    INDEX 01 00:46:06
  TRACK 36 AUDIO
    TITLE "4:cjc115_0307"
    INDEX 01 00:46:07
  TRACK 37 AUDIO
    TITLE "0:"
    INDEX 01 00:50:46
  TRACK 38 AUDIO
    TITLE "2:cjc115_0308"
    INDEX 01 00:51:54
  TRACK 39 AUDIO
    TITLE "0:"
    INDEX 01 00:53:04
  TRACK 40 AUDIO
    TITLE "3:cjc115_0309"
    INDEX 01 00:53:09
  TRACK 41 AUDIO
    TITLE "0:"
    INDEX 01 00:55:63
  TRACK 42 AUDIO
    TITLE "4:cjc115_0310"
    INDEX 01 00:55:71
  TRACK 43 AUDIO
    TITLE "0:"
    INDEX 01 00:59:16
  TRACK 44 AUDIO
    TITLE "2:cjc115_0311"
    INDEX 01 01:00:23
  TRACK 45 AUDIO
    TITLE "0:"
    INDEX 01 01:01:42
  TRACK 46 AUDIO
    TITLE "3:cjc115_0312"
    INDEX 01 01:01:48
  TRACK 47 AUDIO
    TITLE "0:"
    INDEX 01 01:03:16
  TRACK 48 AUDIO
    TITLE "4:cjc115_0313"
    INDEX 01 01:03:22
  TRACK 49 AUDIO
    TITLE "0:"
    INDEX 01 01:07:72
  TRACK 50 AUDIO
    TITLE "2:cjc115_0314"
    INDEX 01 01:09:09
  TRACK 51 AUDIO
    TITLE "0:"
    INDEX 01 01:10:35
  TRACK 52 AUDIO
    TITLE "3:cjc115_0315"
    INDEX 01 01:10:41
  TRACK 53 AUDIO
    TITLE "0:"
    INDEX 01 01:12:07
  TRACK 54 AUDIO
    TITLE "4:cjc115_0316"
    INDEX 01 01:12:15
  TRACK 55 AUDIO
    TITLE "0:"
    INDEX 01 01:15:52
  TRACK 56 AUDIO
    TITLE "2:cjc115_0317"
    INDEX 01 01:16:60
  TRACK 57 AUDIO
    TITLE "0:"
    INDEX 01 01:18:00
  TRACK 58 AUDIO
    TITLE "3:cjc115_0318"
    INDEX 01 01:18:09
  TRACK 59 AUDIO
    TITLE "0:"
    INDEX 01 01:21:74
  TRACK 60 AUDIO
    TITLE "4:cjc115_0319"
    INDEX 01 01:22:05
  TRACK 61 AUDIO
    TITLE "0:"
    INDEX 01 01:25:57
  TRACK 62 AUDIO
    TITLE "2:cjc115_0320"
    INDEX 01 01:26:60
  TRACK 63 AUDIO
    TITLE "0:"
    INDEX 01 01:27:69
  TRACK 64 AUDIO
    TITLE "3:cjc115_0321"
    INDEX 01 01:28:02
  TRACK 65 AUDIO
    TITLE "0:"
    INDEX 01 01:29:09
  TRACK 66 AUDIO
    TITLE "4:cjc115_0322"
    INDEX 01 01:29:19
  TRACK 67 AUDIO
    TITLE "0:"
    INDEX 01 01:32:31
  TRACK 68 AUDIO
    TITLE "2:cjc115_0323"
    INDEX 01 01:33:36
  TRACK 69 AUDIO
    TITLE "0:"
    INDEX 01 01:34:63
  TRACK 70 AUDIO
    TITLE "3:cjc115_0324"
    INDEX 01 01:34:67
  TRACK 71 AUDIO
    TITLE "0:"
    INDEX 01 01:37:09
  TRACK 72 AUDIO
    TITLE "4:cjc115_0325"
    INDEX 01 01:37:17
  TRACK 73 AUDIO
    TITLE "0:"
    INDEX 01 01:41:40
